<?xml version="1.0" encoding="UTF-8" standalone="no"?>
<!DOCTYPE svg PUBLIC "-//W3C//DTD SVG 1.1//EN" "http://www.w3.org/Graphics/SVG/1.1/DTD/svg11.dtd">
<svg width="100%" height="100%" viewBox="0 0 930 350" version="1.1" xmlns="http://www.w3.org/2000/svg" xmlns:xlink="http://www.w3.org/1999/xlink" xml:space="preserve" xmlns:serif="http://www.serif.com/" style="fill-rule:evenodd;clip-rule:evenodd;stroke-linecap:round;stroke-linejoin:round;stroke-miterlimit:1.5;">
    <path d="M780.693,159.684C824.785,159.242 846.313,89 875.667,98.48" style="fill:none;stroke:rgb(204,198,237);stroke-width:4.5px;"/>
    <g id="js-branch-diagram-branch" transform="matrix(0.445479,0,0,1,36.7488,152.684)">
        <path d="M66.271,5.964C135.523,5.964 143.461,112 191.028,112L725.839,112C770.627,112 786.057,5.957 855.111,5.964" style="fill:none;fill-rule:nonzero;stroke:rgb(65,130,196);stroke-width:4px;stroke-linecap:butt;stroke-linejoin:miter;stroke-miterlimit:4;"/>
    </g>
    <g id="js-branch-diagram-branch1" serif:id="js-branch-diagram-branch" transform="matrix(0.445479,0,0,1.20854,254.772,151.44)">
        <path d="M66.271,5.964C135.523,5.964 143.461,112 191.028,112L725.839,112C770.627,112 786.057,5.957 855.111,5.964" style="fill:none;fill-rule:nonzero;stroke:rgb(65,196,94);stroke-width:4px;stroke-linecap:butt;stroke-linejoin:miter;stroke-miterlimit:4;"/>
    </g>
    <g id="js-branch-diagram-branch2" serif:id="js-branch-diagram-branch" transform="matrix(0.773136,0,0,1.09511,107.889,152.117)">
        <path d="M66.271,5.964C135.523,5.964 143.461,112 191.028,112L725.839,112C770.627,112 786.057,5.957 855.111,5.964" style="fill:none;fill-rule:nonzero;stroke:rgb(65,196,192);stroke-width:4px;stroke-linecap:butt;stroke-linejoin:miter;stroke-miterlimit:4;"/>
    </g>
    <g id="develop" transform="matrix(0.992538,0,0,1,-1.84741e-13,152.684)">
        <path id="js-branch-diagram-master" d="M0,7L920,7" style="fill-rule:nonzero;stroke:rgb(198,217,237);stroke-width:8px;stroke-linecap:butt;stroke-linejoin:miter;stroke-miterlimit:4;"/>
        <path id="js-branch-diagram-arrow" d="M907.2,10C910.98,8.95 915.22,8.05 918,7C914.22,5.95 910.98,5.05 907.2,4" style="fill:none;fill-rule:nonzero;stroke:rgb(198,217,237);stroke-width:8px;stroke-linecap:butt;stroke-linejoin:miter;stroke-miterlimit:4;"/>
    </g>
    <g id="develop1" serif:id="develop" transform="matrix(0.992538,0,0,1,-9.9476e-14,91.4802)">
        <path id="js-branch-diagram-master1" serif:id="js-branch-diagram-master" d="M0,7L920,7" style="fill-rule:nonzero;stroke:rgb(204,198,237);stroke-width:8px;stroke-linecap:butt;stroke-linejoin:miter;stroke-miterlimit:4;"/>
        <path id="js-branch-diagram-arrow1" serif:id="js-branch-diagram-arrow" d="M907.2,10C910.98,8.95 915.22,8.05 918,7C914.22,5.95 910.98,5.05 907.2,4" style="fill:none;fill-rule:nonzero;stroke:rgb(204,198,237);stroke-width:8px;stroke-linecap:butt;stroke-linejoin:miter;stroke-miterlimit:4;"/>
    </g>
    <g transform="matrix(1,0,0,1,-17.8857,7.86481)">
        <text x="378.72px" y="84.325px" style="font-family:'Arial-BoldMT', 'Arial', sans-serif;font-weight:700;font-size:14px;fill:rgb(204,198,237);">main</text>
    </g>
    <g transform="matrix(1,0,0,1,8.10418,-5.09371)">
        <text x="456.568px" y="156.684px" style="font-family:'Arial-BoldMT', 'Arial', sans-serif;font-weight:700;font-size:14px;fill:rgb(198,217,237);">staging</text>
    </g>
</svg>
